PathFileType	3	(X/Y/Z)	D:\minhoCalibration\240510\subject2_KPNP\preferred\preferred01.trc
DataRate	CameraRate	NumFrames	NumMarkers	Units	OrigDataRate	OrigDataStartFrame	OrigNumFrames
200.0	200.0	27	10	mm	200.0	390	233	
Frame#	Time	Left_Ankle_Outer1			Left_Ankle_Inner1			Left_Knee_Outer1			Left_Knee_Inner1			Left_Wrist1			Right_Wrist1			Right_Knee_Inner1			Right_Knee_Outer1			Right_Ankle_Inner1			Right_Ankle_Outer1			
		X1	Y1	Z1	X2	Y2	Z2	X3	Y3	Z3	X4	Y4	Z4	X5	Y5	Z5	X6	Y6	Z6	X7	Y7	Z7	X8	Y8	Z8	X9	Y9	Z9	X10	Y10	Z10	
390	1.94	-451.96375	95.224281	-709.74213	-432.58807	99.33532	-657.58417	-323.15866	516.4353	-808.11639	-304.73923	500.95642	-712.10651	-401.33954	927.87042	-858.95667	-366.47571	1162.7931	-607.18457	-277.58994	999.14752	-199.56015	-295.00284	1085.8102	-207.45024	-369.38434	954.51984	192.98325	-380.23334	1051.1915	200.97989
391	1.945	-452.12119	94.334641	-710.34625	-433.37781	98.37262	-657.94434	-321.90625	514.91669	-807.28894	-304.18106	499.32028	-711.45984	-397.81702	928.03448	-858.9566	-368.7644	1161.6853	-605.68713	-277.81952	996.65674	-198.72865	-295.85193	1083.2565	-205.83597	-372.20648	946.05066	192.38925	-383.30676	1042.4268	201.13409
392	1.95	-452.29364	93.701538	-711.14557	-433.82999	97.299232	-659.14087	-320.94147	513.49701	-806.48749	-303.83307	497.99115	-710.953	-393.81027	928.67273	-858.97162	-371.4707	1161.4498	-604.2594	-277.69458	994.21252	-198.03645	-297.4281	1080.7094	-205.16609	-375.35101	937.36261	191.67467	-387.6051	1033.4243	201.63693
393	1.955	-452.4707	93.208031	-712.06555	-434.32288	96.789177	-659.75116	-319.58347	512.5296	-806.18646	-303.57425	496.75305	-710.48987	-389.68204	929.06763	-859.35681	-374.45233	1161.944	-603.00861	-277.07162	991.89154	-197.44022	-299.38354	1077.9171	-205.13898	-378.14084	927.69141	190.33598	-392.63116	1023.8091	201.73244
394	1.96	-452.52533	92.816086	-712.53345	-435.14319	96.413338	-659.95398	-318.58948	511.51526	-805.93567	-303.383	495.67899	-710.09534	-385.49231	929.70062	-859.35461	-377.63892	1162.8868	-602.06494	-276.06595	989.51764	-196.93636	-301.06134	1075.072	-205.317	-381.15872	917.99335	188.51558	-398.19531	1013.4404	201.19762
395	1.965	-452.53378	92.578827	-713.01263	-435.39972	96.52243	-659.84778	-317.52734	510.65964	-805.74316	-303.14517	494.76736	-709.78394	-381.95862	929.77521	-858.9837	-380.80179	1164.009	-601.45074	-275.22708	987.08337	-196.39368	-302.30942	1072.3049	-205.28151	-383.56226	908.16638	185.18843	-404.33426	1002.6475	200.21133
396	1.97	-452.47723	92.369453	-713.18622	-435.41727	96.199371	-660.25171	-316.22238	509.90433	-806.00208	-302.74933	494.03381	-709.62311	-378.05042	930.60992	-858.46179	-383.73691	1165.1177	-601.0166	-274.48801	984.35547	-195.88014	-302.7955	1069.5583	-205.04514	-388.68524	897.65283	184.01747	-410.93219	991.24762	198.58342
397	1.975	-452.48395	92.293159	-713.17267	-435.33057	95.844391	-660.67712	-315.03629	509.13263	-805.92651	-302.27832	493.43546	-709.52423	-374.84772	930.88177	-857.90808	-386.36816	1165.9413	-600.71851	-273.93698	981.38092	-195.27377	-302.55334	1066.8749	-204.36874	-393.79425	886.07526	181.02246	-418.14917	979.84113	196.84875
398	1.98	-452.40176	92.156464	-713.09082	-435.63397	95.791954	-659.94928	-313.63297	508.55185	-805.7793	-301.71835	492.97141	-709.35352	-371.97702	930.93488	-857.75	-388.61502	1166.2952	-600.42712	-273.47849	978.07349	-194.62209	-301.82791	1064.2036	-203.37778	-399.35571	872.79181	177.13205	-425.57248	967.34039	194.41145
399	1.985	-452.439	92.104523	-713.0257	-435.37604	95.835365	-659.44629	-312.0665	507.95352	-805.81525	-300.95718	492.72971	-709.2113	-369.9563	930.74951	-856.86108	-390.65259	1166.0914	-600.04041	-273.18243	974.63635	-194.01537	-301.21466	1061.5325	-202.26903	-403.77866	863.34235	172.82722	-433.06647	954.53485	190.72142
400	1.99	-452.28229	91.771652	-712.55219	-435.37082	95.513405	-659.19757	-309.85303	508.26465	-805.70648	-300.6022	492.38867	-708.69751	-368.11786	930.67609	-856.2431	-392.41327	1165.47	-599.46741	-272.56409	971.37933	-193.38367	-301.45425	1058.7533	-201.26804	-409.7627	850.90491	168.42506	-441.10635	941.09332	186.61661
401	1.995	-452.27112	91.577179	-712.4425	-435.33884	95.189461	-658.86237	-307.95203	508.27515	-805.23608	-299.57794	492.45535	-708.34857	-366.74182	930.41943	-856.11877	-393.91296	1164.3036	-598.69855	-271.98535	968.11292	-193.20296	-302.53311	1055.8993	-200.61374	-414.89346	838.62738	162.37915	-449.88385	927.57806	182.03116
402	2	-452.13885	91.236481	-711.84021	-435.0921	94.75222	-658.80878	-305.93802	508.40842	-804.84967	-298.89191	492.38843	-707.69897	-365.67511	930.21295	-855.91003	-395.15002	1162.3899	-598.07513	-270.40546	965.47046	-193.25191	-303.69733	1052.9382	-200.41391	-420.30627	826.34387	155.6272	-458.60608	913.52728	176.50157
403	2.005	-452.2225	91.061935	-711.58765	-435.22757	94.706604	-657.9903	-303.87323	508.6745	-804.42407	-298.17905	492.35037	-707.07196	-364.62112	930.06305	-856.37384	-396.25467	1160.8088	-596.5636	-268.62442	963.1499	-193.48912	-305.34183	1049.755	-200.15007	-427.21704	813.22638	149.5759	-467.26801	899.37	170.15479
404	2.01	-452.09949	90.727127	-710.99072	-435.16321	93.969398	-658.2771	-302.04221	508.82269	-803.70477	-297.34833	492.23712	-706.41608	-363.7258	929.96527	-856.63538	-397.31027	1158.736	-595.41364	-266.79681	961.10846	-193.89577	-307.15588	1046.4181	-199.80624	-433.65454	799.76648	141.99792	-476.04626	885.45624	163.36746
405	2.015	-452.02145	90.551842	-710.5697	-435.28558	94.175728	-657.00415	-300.67426	508.48007	-802.94299	-296.45923	492.1449	-705.81409	-362.73386	930.10327	-856.99835	-398.37653	1156.491	-594.35754	-265.21173	959.01099	-194.35632	-309.03635	1042.7697	-199.48039	-440.62872	786.69745	134.21696	-484.60397	870.81555	155.96828
406	2.02	-451.9505	90.5131	-710.29974	-435.23157	93.962662	-656.62811	-298.94955	508.67468	-802.31122	-295.29022	491.96939	-705.3219	-361.60162	930.32471	-857.70819	-399.46814	1154.2687	-593.37695	-264.00906	956.75958	-194.70166	-310.99551	1038.9194	-199.0112	-448.80609	772.04517	126.32392	-493.1445	855.96228	147.96992
407	2.025	-451.81287	90.468643	-709.92871	-435.06165	93.386185	-657.06702	-297.42834	508.45032	-801.71777	-294.10913	491.68402	-704.80853	-360.34875	930.84045	-858.02155	-400.56763	1152.1283	-592.44751	-263.26279	954.21222	-194.80754	-313.02661	1034.8345	-198.48656	-454.51151	759.53693	115.99175	-501.34116	840.99707	138.90924
408	2.03	-451.65546	90.542953	-709.78906	-435.25351	93.502754	-656.34308	-296.08722	508.11331	-801.04114	-292.76562	491.37094	-704.41162	-358.7789	931.51593	-858.59564	-401.85806	1150.1245	-591.52332	-262.90378	951.37476	-194.84344	-315.18622	1030.5573	-197.77524	-461.53546	745.40375	105.69564	-510.00165	826.50909	129.96341
409	2.035	-451.46262	90.695724	-709.77887	-434.86963	93.409218	-656.62085	-294.26617	507.94989	-800.82867	-291.38129	491.05313	-704.05963	-357.0975	932.37396	-858.68219	-403.29929	1148.2935	-590.72357	-262.84576	948.22021	-194.75125	-317.3316	1026.0388	-196.97684	-469.2749	731.32483	95.551392	-518.22711	811.44489	120.07133
410	2.04	-451.15021	90.813889	-709.70312	-434.88849	93.553703	-656.44397	-293.03995	507.41339	-800.38116	-290.07672	490.79709	-703.77454	-355.05362	933.20624	-859.28284	-405.01468	1146.6329	-589.93683	-263.0957	944.8114	-194.61885	-319.68808	1021.2922	-196.02104	-475.49905	717.57629	83.686981	-526.5033	796.08698	109.66727
411	2.045	-450.92044	91.099518	-709.94464	-434.79153	94.237801	-656.1792	-291.69174	506.79999	-799.98419	-288.83023	490.58688	-703.64374	-352.79907	934.1825	-859.43335	-406.94092	1145.0763	-589.25702	-263.63696	941.12231	-194.3526	-321.96692	1016.2643	-195.15007	-481.88669	703.06647	71.237328	-534.08087	780.48376	98.244705
412	2.05	-450.79691	91.556488	-710.63605	-434.77081	94.57061	-656.51013	-290.40643	505.91034	-800.08246	-287.75131	490.40738	-703.55133	-350.22366	935.22595	-859.52411	-409.21594	1143.6411	-588.57977	-264.41516	936.99091	-194.12009	-324.34595	1011.071	-194.21191	-489.29385	688.17322	59.207825	-541.94562	764.84009	86.492477
413	2.055	-450.5524	91.935928	-711.21136	-434.7868	93.931572	-658.20782	-288.82675	505.63663	-800.1087	-286.22501	490.04398	-703.57275	-347.51282	936.40289	-859.14722	-411.84259	1142.4446	-587.98279	-265.52914	932.59302	-193.87415	-326.84982	1005.6825	-193.26752	-493.56958	674.23608	44.618721	-549.08368	749.24512	74.211517
414	2.06	-450.29184	92.314476	-711.97339	-434.98352	94.795769	-658.1994	-287.71021	504.70215	-800.23468	-284.9501	489.80988	-703.70679	-344.58185	937.33551	-859.13177	-414.22577	1141.1959	-587.55798	-266.93054	927.82367	-193.71519	-329.46692	1000.0789	-192.34767	-499.89526	660.14508	31.197451	-556.31873	733.26514	61.270424
415	2.065	-450.14697	92.746658	-712.89191	-434.98511	95.56105	-658.62909	-285.83167	504.70978	-800.80469	-283.82047	489.70349	-703.92712	-341.50943	938.38605	-858.65533	-416.99915	1139.9733	-587.12732	-268.60339	922.69366	-193.61406	-332.2117	994.26514	-191.5511	-504.25821	645.79718	16.169783	-562.67761	717.76392	47.63332
416	2.07	-449.78625	92.959999	-713.60315	-435.19446	95.951874	-659.67786	-285.02103	503.88419	-800.65607	-282.59134	489.59656	-704.22919	-338.09494	939.56372	-858.60071	-419.83514	1138.8541	-586.77667	-270.67435	917.29352	-193.6543	-335.16495	988.23456	-190.76669	-510.02496	631.45587	1.6915262	-568.77063	702.07104	33.511753
